<?xml version="1.0" encoding="UTF-8"?>
<!-- Generator: Adobe Illustrator 24.0.0, SVG Export Plug-In . SVG Version: 6.00 Build 0)  -->
<svg version="1.1" id="Laag_1" xmlns="http://www.w3.org/2000/svg" xmlns:xlink="http://www.w3.org/1999/xlink" x="0px" y="0px" viewBox="0 0 110.3 22.9" style="enable-background:new 0 0 110.3 22.9;" xml:space="preserve">
<style type="text/css">
	.st0{fill:#7F47DD;}
	.st1{fill:#FFFFFF;}
	.st2{fill:#A279E6;}
</style>
<title>LOGO_GRADUAAT_PROGRAMMERENMiddel 38PAARS</title>
<path class="st0" d="M10.5,5.6l5.2,3l0,0l1.6-0.9l0,0l0.1-5.8L10.5,5.6z M4.1,10.6V9.1l-2.9,1.6l-0.1,5.8L5,14.4l0,0l3-1.6l0,0  L4.1,10.6z"/>
<path class="st1" d="M18.6,7.1L18.7,0L9.3,5L4.2,2.1v5.7L0.1,10L0,18.4l5-2.7l-0.1,7.2l10.8-5.8l6.8,3.8l0.1-7.6l0.9-0.5v-0.4  l0.1-8.1L18.6,7.1z M17.5,1.9l-0.1,5.8l0,0l-1.6,0.9l0,0l-5.2-3L17.5,1.9z M5.3,8.4V7.1v-3L8,5.6l0,0l1.2,0.7l5.3,3l-5.3,2.9l-4-2.2  L5.3,8.4z M5,14.4l-3.9,2.1l0.1-5.8l2.9-1.6v1.5L8,12.8l0,0L5,14.4L5,14.4z M21.4,18.9l-4.5-2.5l4.5-2.4V18.9z M22.4,12.2l-0.1,0.1  L21.1,13l-5.4,2.8l-1.2,0.7l0,0L6.1,21l0.1-5.8l2.2-1.3l0.8-0.4l0,0l1.2-0.6l5.3-2.9l1.2-0.6l0,0l1.6-0.9l3.9-2.1  C22.4,6.4,22.4,12.2,22.4,12.2z"/>
<polygon class="st1" points="9.3,6.3 5.3,8.4 5.3,7.1 8.1,5.6 8.1,5.6 "/>
<polygon class="st1" points="5,14.4 5,14.4 1.1,16.4 "/>
<polygon class="st1" points="17.4,7.7 15.8,8.6 15.8,8.6 15.8,8.6 "/>
<path class="st0" d="M5.3,4.1v3l2.8-1.5L5.3,4.1z M16.9,16.4l4.5,2.5V14L16.9,16.4z"/>
<polygon class="st0" points="14.6,9.3 9.2,12.1 5.3,9.9 5.3,8.4 9.3,6.3 "/>
<path class="st2" d="M8.1,5.6L8.1,5.6L5.3,7.1v1.3l4-2.1L8.1,5.6z"/>
<polygon class="st1" points="15.8,8.6 15.8,8.6 15.8,8.6 10.5,5.6 "/>
<polygon class="st1" points="15.7,15.8 14.5,16.4 14.5,16.4 9.2,13.4 10.4,12.8 "/>
<polygon class="st1" points="22.3,12.2 21,12.9 15.8,9.9 17,9.3 17,9.3 "/>
<path class="st0" d="M18.6,8.4L17,9.3l0,0l5.3,3l0.1-0.1l0.1-5.8L18.6,8.4z M9.2,13.4L9.2,13.4l-0.7,0.4L6.2,15l-0.1,5.8l8.4-4.5  L9.2,13.4z"/>
<polygon class="st0" points="21,12.9 15.7,15.8 10.4,12.8 15.8,9.9 "/>
<path class="st2" d="M10.4,12.8l-1.2,0.7l5.3,3l0,0l1.3-0.7L10.4,12.8z M17,9.3L17,9.3l-1.2,0.6l5.3,3l1.2-0.7L17,9.3z"/>
<path class="st1" d="M15.8,8.6L15.8,8.6l1.6-0.9L15.8,8.6z"/>
<path class="st1" d="M35.5,12.8c0.4,0.2,0.7,0.6,0.9,1c0.4,1,0.4,2,0,3c-0.2,0.4-0.5,0.8-0.9,1s-0.8,0.4-1.2,0.4s-0.8-0.1-1.1-0.3  c-0.3-0.2-0.5-0.5-0.7-0.8v3.7h-1.7v-8.3h1.7v1c0.1-0.3,0.4-0.6,0.7-0.8c0.3-0.2,0.7-0.3,1.1-0.3C34.8,12.4,35.2,12.6,35.5,12.8z   M32.9,14.3c-0.2,0.3-0.4,0.6-0.3,1c0,0.4,0.1,0.7,0.3,1c0.5,0.5,1.3,0.5,1.8,0c0.2-0.3,0.4-0.6,0.3-1c0-0.4-0.1-0.7-0.3-1  C34.1,13.8,33.4,13.8,32.9,14.3z"/>
<path class="st1" d="M40.2,12.7c0.3-0.2,0.7-0.3,1.1-0.3v1.8h-0.5c-0.4,0-0.8,0.1-1.1,0.3c-0.3,0.2-0.4,0.6-0.4,1v2.6h-1.7v-5.6h1.7  v1.1C39.6,13.2,39.8,12.9,40.2,12.7z"/>
<path class="st1" d="M46.1,12.8c0.4,0.2,0.8,0.6,1,1c0.5,1,0.5,2.1,0,3.1c-0.2,0.4-0.6,0.8-1,1c-0.9,0.5-2.1,0.5-3,0  c-0.4-0.2-0.8-0.6-1-1c-0.5-1-0.5-2.1,0-3.1c0.2-0.4,0.6-0.8,1-1C44.1,12.3,45.2,12.3,46.1,12.8z M43.8,14.3c-0.5,0.6-0.5,1.4,0,2.1  c0.2,0.2,0.5,0.4,0.8,0.4s0.6-0.1,0.8-0.4c0.4-0.6,0.4-1.4,0-2.1c-0.2-0.2-0.5-0.4-0.8-0.4S44,14,43.8,14.3L43.8,14.3z"/>
<path class="st1" d="M51.7,12.7c0.3,0.2,0.5,0.5,0.7,0.8v-1h1.7v5.6c0,0.5-0.1,1-0.3,1.4s-0.5,0.8-0.9,1c-0.5,0.3-1,0.4-1.5,0.4  c-0.7,0-1.4-0.2-2-0.6c-0.5-0.4-0.8-1-0.9-1.6h1.7c0.1,0.2,0.2,0.4,0.4,0.5s0.5,0.2,0.8,0.2s0.6-0.1,0.9-0.3c0.2-0.3,0.4-0.6,0.3-1  v-1c-0.1,0.3-0.4,0.6-0.7,0.8c-0.3,0.2-0.7,0.3-1.1,0.3c-0.5,0-0.9-0.1-1.3-0.3c-0.4-0.2-0.7-0.6-0.9-1c-0.4-1-0.4-2.1,0-3.1  c0.2-0.4,0.5-0.8,0.9-1s0.8-0.4,1.2-0.4C51,12.4,51.4,12.5,51.7,12.7z M50.2,14.3c-0.2,0.3-0.4,0.6-0.3,1c0,0.4,0.1,0.7,0.3,1  c0.5,0.5,1.3,0.5,1.8,0c0.2-0.3,0.4-0.6,0.3-1c0-0.4-0.1-0.7-0.3-1C51.5,13.8,50.7,13.8,50.2,14.3z"/>
<path class="st1" d="M57.8,12.7c0.3-0.2,0.7-0.3,1.1-0.3v1.8h-0.5c-0.4,0-0.8,0.1-1.1,0.3c-0.3,0.3-0.4,0.6-0.4,1v2.6h-1.7v-5.6H57  v1.1C57.2,13.2,57.5,12.9,57.8,12.7z"/>
<path class="st1" d="M62.9,12.7c0.3,0.2,0.5,0.5,0.7,0.8v-1h1.7v5.6h-1.7v-1c-0.1,0.3-0.4,0.6-0.7,0.8c-0.3,0.2-0.7,0.3-1.1,0.3  c-0.4,0-0.9-0.1-1.2-0.4c-0.4-0.2-0.7-0.6-0.9-1c-0.4-1-0.4-2.1,0-3.1c0.2-0.4,0.5-0.8,0.9-1s0.8-0.4,1.2-0.4  C62.2,12.4,62.6,12.5,62.9,12.7z M61.4,14.3c-0.2,0.3-0.4,0.6-0.3,1c0,0.4,0.1,0.7,0.3,1c0.5,0.5,1.3,0.5,1.8,0  c0.2-0.3,0.4-0.6,0.3-1c0-0.4-0.1-0.7-0.3-1C62.7,13.8,61.9,13.8,61.4,14.3z"/>
<path class="st1" d="M75.4,13c0.4,0.5,0.6,1.1,0.6,1.8v3.3h-1.7v-3c0-0.3-0.1-0.6-0.3-0.8c-0.2-0.2-0.5-0.3-0.8-0.3  s-0.6,0.1-0.8,0.3c-0.2,0.2-0.3,0.6-0.3,0.9v3h-1.7v-3.1c0-0.3-0.1-0.6-0.3-0.8c-0.2-0.2-0.5-0.3-0.8-0.3s-0.6,0.1-0.8,0.3  c-0.2,0.2-0.3,0.6-0.3,0.9v3h-1.8v-5.6h1.7v1c0.1-0.3,0.4-0.6,0.7-0.8c0.3-0.2,0.7-0.3,1.1-0.3s0.8,0.1,1.1,0.3  c0.3,0.2,0.6,0.5,0.7,0.9c0.2-0.3,0.5-0.6,0.8-0.8c0.3-0.2,0.7-0.3,1.1-0.3C74.4,12.4,75,12.6,75.4,13z"/>
<path class="st1" d="M86,13c0.4,0.5,0.6,1.1,0.6,1.8v3.3h-1.7V15c0-0.3-0.1-0.6-0.3-0.8c-0.2-0.2-0.5-0.3-0.8-0.3S83.2,14,83,14.2  c-0.2,0.2-0.3,0.6-0.3,0.9v3H81V15c0-0.3-0.1-0.6-0.3-0.8c-0.2-0.2-0.5-0.3-0.8-0.3s-0.6,0.1-0.8,0.3c-0.2,0.2-0.3,0.6-0.3,0.9v3  h-1.7v-5.6h1.7v1c0.1-0.3,0.4-0.6,0.7-0.8c0.7-0.4,1.5-0.4,2.2,0c0.3,0.2,0.6,0.5,0.8,0.9c0.2-0.3,0.5-0.6,0.8-0.8  c0.3-0.2,0.7-0.3,1.1-0.3C85,12.4,85.6,12.6,86,13z"/>
<path class="st1" d="M93.1,15.6h-3.9c0,0.3,0.1,0.7,0.3,0.9c0.2,0.2,0.5,0.3,0.7,0.3s0.5-0.1,0.6-0.2c0.2-0.1,0.3-0.3,0.3-0.5H93  c-0.1,0.4-0.2,0.8-0.5,1.1c-0.3,0.3-0.6,0.6-1,0.7c-0.4,0.2-0.8,0.3-1.3,0.3s-1-0.1-1.5-0.4c-0.4-0.2-0.8-0.6-1-1  c-0.3-0.5-0.4-1-0.4-1.5s0.2-1,0.4-1.5c0.2-0.4,0.6-0.8,1-1c0.5-0.2,1-0.4,1.5-0.4s1,0.1,1.5,0.3c0.4,0.2,0.8,0.6,1,1  s0.4,0.9,0.3,1.4C93.1,15.3,93.1,15.5,93.1,15.6z M91.1,14c-0.2-0.2-0.5-0.3-0.8-0.3s-0.6,0.1-0.8,0.3c-0.2,0.2-0.4,0.5-0.4,0.8h2.2  C91.4,14.6,91.3,14.2,91.1,14L91.1,14z"/>
<path class="st1" d="M96.6,12.7c0.3-0.2,0.7-0.3,1.1-0.3v1.8h-0.5c-0.4,0-0.8,0.1-1.1,0.3c-0.3,0.3-0.4,0.6-0.4,1v2.6H94v-5.6h1.7  v1.1C95.9,13.2,96.2,12.9,96.6,12.7z"/>
<path class="st1" d="M103.7,15.6h-3.9c0,0.3,0.1,0.7,0.3,0.9c0.4,0.3,1,0.4,1.4,0.1c0.2-0.1,0.3-0.3,0.3-0.5h1.8  c-0.1,0.4-0.2,0.8-0.5,1.1c-0.3,0.3-0.6,0.6-1,0.7c-0.9,0.4-1.9,0.4-2.7-0.1c-0.4-0.2-0.8-0.6-1-1c-0.5-1-0.5-2.1,0-3.1  c0.2-0.4,0.6-0.8,1-1c0.5-0.2,1-0.4,1.5-0.4s1,0.1,1.5,0.3c0.4,0.2,0.8,0.6,1,1s0.4,0.9,0.3,1.4C103.7,15.3,103.7,15.5,103.7,15.6z   M101.7,14c-0.2-0.2-0.5-0.3-0.8-0.3s-0.6,0.1-0.8,0.3c-0.2,0.2-0.3,0.5-0.3,0.8h2.2C102,14.6,101.9,14.3,101.7,14L101.7,14z"/>
<path class="st1" d="M109.7,13.1c0.4,0.5,0.6,1.1,0.6,1.8v3.3h-1.7v-3.1c0-0.3-0.1-0.6-0.3-0.9c-0.2-0.2-0.5-0.3-0.8-0.3  s-0.6,0.1-0.8,0.3c-0.2,0.3-0.3,0.6-0.3,1v3h-1.7v-5.6h1.7v1c0.2-0.3,0.4-0.6,0.7-0.8c0.3-0.2,0.7-0.3,1.1-0.3  C108.8,12.4,109.3,12.6,109.7,13.1z"/>
<path class="st1" d="M30.9,8.4c-0.4-0.4-0.6-1-0.6-1.6s0.2-1.1,0.6-1.6c0.4-0.4,0.9-0.6,1.5-0.6c0.4,0,0.7,0.1,1,0.3  c0.3,0.2,0.5,0.4,0.6,0.7V4.7h0.5v4.4c0,0.5-0.2,1-0.6,1.4c-0.4,0.4-0.9,0.6-1.4,0.5c-0.5,0-1-0.1-1.4-0.4c-0.4-0.2-0.6-0.6-0.7-1  h0.5c0.1,0.3,0.3,0.5,0.5,0.7c0.3,0.2,0.6,0.3,1,0.3s0.7-0.1,1-0.4s0.4-0.7,0.4-1.1V8c-0.1,0.3-0.4,0.5-0.6,0.7  c-0.3,0.2-0.6,0.3-1,0.3C31.8,9,31.3,8.8,30.9,8.4z M33.5,8.1c0.6-0.7,0.6-1.8,0-2.5c-0.6-0.6-1.6-0.6-2.2,0l0,0  c-0.3,0.3-0.5,0.8-0.5,1.2c0,0.5,0.1,0.9,0.5,1.3c0.6,0.6,1.5,0.7,2.1,0.1C33.5,8.1,33.5,8.1,33.5,8.1L33.5,8.1z"/>
<path class="st1" d="M36.2,4.7v0.7c0.2-0.5,0.8-0.8,1.3-0.8v0.6h-0.1c-0.3,0-0.6,0.1-0.9,0.3c-0.2,0.3-0.3,0.6-0.3,1v2.4h-0.5V4.7  C35.7,4.7,36.2,4.7,36.2,4.7z"/>
<path class="st1" d="M38.7,8.4c-0.4-0.4-0.6-1-0.6-1.6s0.2-1.1,0.6-1.6c0.4-0.4,0.9-0.6,1.5-0.6c0.4,0,0.7,0.1,1,0.3  c0.3,0.2,0.5,0.4,0.6,0.7V4.7h0.6v4.2h-0.5V8c-0.1,0.3-0.4,0.5-0.6,0.7C41,8.9,40.7,9,40.3,9C39.7,9,39.1,8.8,38.7,8.4z M41.4,8.1  c0.6-0.7,0.6-1.8,0-2.5c-0.6-0.6-1.6-0.6-2.2,0l0,0c-0.3,0.3-0.5,0.8-0.5,1.2c0,0.5,0.1,0.9,0.5,1.3c0.3,0.3,0.7,0.5,1.1,0.5  C40.7,8.6,41.1,8.4,41.4,8.1z"/>
<path class="st1" d="M43.8,8.4c-0.4-0.4-0.6-1-0.6-1.6s0.2-1.1,0.6-1.6c0.4-0.4,0.9-0.6,1.5-0.6c0.4,0,0.7,0.1,1,0.3  c0.3,0.2,0.5,0.4,0.6,0.7V3.2h0.5v5.7h-0.5V8c-0.1,0.3-0.4,0.5-0.6,0.7C46,8.9,45.7,9,45.3,9C44.8,9,44.2,8.8,43.8,8.4z M46.5,8.1  c0.6-0.7,0.6-1.8,0-2.5c-0.6-0.6-1.6-0.6-2.2,0l0,0c-0.3,0.3-0.5,0.8-0.5,1.2c0,0.5,0.1,0.9,0.5,1.3c0.3,0.3,0.7,0.5,1.1,0.5  C45.8,8.6,46.2,8.4,46.5,8.1z"/>
<path class="st1" d="M51.7,4.7h0.5v4.2h-0.5V8.2C51.4,8.7,50.9,9,50.3,9c-0.4,0-0.9-0.2-1.2-0.5c-0.3-0.4-0.5-0.8-0.5-1.3V4.7h0.5  v2.4c0,0.4,0.1,0.8,0.3,1.1c0.2,0.3,0.6,0.4,0.9,0.4c0.3,0,0.7-0.1,0.9-0.4s0.4-0.7,0.3-1.1L51.7,4.7z"/>
<path class="st1" d="M53.7,8.4c-0.4-0.4-0.6-1-0.6-1.6s0.2-1.1,0.6-1.6c0.4-0.4,0.9-0.6,1.5-0.6c0.4,0,0.7,0.1,1,0.3  c0.3,0.2,0.5,0.4,0.7,0.7V4.7h0.5v4.2h-0.5V8c-0.1,0.3-0.4,0.5-0.7,0.7S55.6,9,55.2,9C54.6,9,54.1,8.8,53.7,8.4z M56.3,8.1  c0.6-0.7,0.6-1.8,0-2.5c-0.3-0.3-0.7-0.5-1.1-0.5c-0.4,0-0.8,0.2-1.1,0.5s-0.5,0.8-0.5,1.2c0,0.5,0.1,0.9,0.5,1.3  C54.7,8.7,55.6,8.7,56.3,8.1L56.3,8.1L56.3,8.1z"/>
<path class="st1" d="M58.8,8.4c-0.4-0.4-0.6-1-0.6-1.6s0.2-1.1,0.6-1.6c0.4-0.4,0.9-0.6,1.5-0.6c0.4,0,0.7,0.1,1,0.3  c0.3,0.2,0.5,0.4,0.7,0.7V4.7h0.5v4.2H62V8c-0.1,0.3-0.4,0.5-0.7,0.7S60.7,9,60.3,9C59.7,9,59.2,8.8,58.8,8.4z M61.4,8.1  c0.6-0.7,0.6-1.8,0-2.5c-0.3-0.3-0.7-0.5-1.1-0.5c-0.4,0-0.8,0.2-1.1,0.5s-0.5,0.8-0.4,1.2c0,0.5,0.1,0.9,0.5,1.3  C59.8,8.7,60.8,8.7,61.4,8.1L61.4,8.1L61.4,8.1z"/>
<path class="st1" d="M65.5,5.1h-1.2v2.8c0,0.2,0,0.3,0.1,0.4s0.3,0.1,0.4,0.1h0.6v0.4h-0.7c-0.5,0.1-0.9-0.3-1-0.7  c0-0.1,0-0.2,0-0.3V5h-0.6V4.6h0.6V3.5h0.5v1.1h1.2L65.5,5.1z"/>
</svg>